<svg width="13" height="11" viewBox="0 0 13 11" fill="none" xmlns="http://www.w3.org/2000/svg">
<path d="M3.198 0.899999C3.70067 0.899999 4.13833 0.990999 4.511 1.173C4.89233 1.355 5.187 1.61933 5.395 1.966C5.603 2.304 5.707 2.71567 5.707 3.201C5.707 3.46967 5.67233 3.71667 5.603 3.942C5.54233 4.16733 5.447 4.371 5.317 4.553C5.187 4.735 5.02667 4.89533 4.836 5.034C5.096 5.14667 5.32567 5.307 5.525 5.515C5.733 5.723 5.89333 5.97867 6.006 6.282C6.12733 6.57667 6.188 6.92333 6.188 7.322C6.188 7.85933 6.07967 8.33167 5.863 8.739C5.64633 9.13767 5.33 9.44967 4.914 9.675C4.50667 9.89167 3.99967 10 3.393 10H0.533V0.899999H3.198ZM2.6 4.618C2.938 4.618 3.211 4.58333 3.419 4.514C3.63567 4.436 3.79167 4.31033 3.887 4.137C3.991 3.955 4.043 3.71233 4.043 3.409C4.043 3.14033 3.99533 2.928 3.9 2.772C3.80467 2.616 3.65733 2.50333 3.458 2.434C3.26733 2.36467 3.02467 2.33 2.73 2.33H1.976V4.618H2.6ZM3.016 8.674C3.23267 8.674 3.458 8.63933 3.692 8.57C3.926 8.492 4.12533 8.35333 4.29 8.154C4.45467 7.95467 4.537 7.66867 4.537 7.296C4.537 7.00133 4.47633 6.75867 4.355 6.568C4.23367 6.37733 4.05167 6.23433 3.809 6.139C3.56633 6.04367 3.25867 5.996 2.886 5.996H1.976V8.674H3.016ZM12.3147 7.959C12.3147 8.64367 12.163 9.181 11.8597 9.571C11.5563 9.95233 11.0493 10.1777 10.3387 10.247L9.88366 9.155C10.0223 9.13767 10.1523 9.103 10.2737 9.051C10.395 8.999 10.499 8.92533 10.5857 8.83C10.6723 8.726 10.7417 8.596 10.7937 8.44C10.8457 8.284 10.8717 8.089 10.8717 7.855V6.906C10.7157 7.02733 10.551 7.127 10.3777 7.205C10.213 7.27433 10.0397 7.322 9.85766 7.348C9.67566 7.374 9.48499 7.387 9.28566 7.387C8.73966 7.387 8.25432 7.27433 7.82966 7.049C7.41366 6.82367 7.08866 6.50733 6.85466 6.1C6.62066 5.684 6.50366 5.19 6.50366 4.618V0.899999H7.94666V4.501C7.94666 4.839 8.00299 5.12933 8.11566 5.372C8.22832 5.606 8.39732 5.78367 8.62266 5.905C8.85666 6.02633 9.15132 6.087 9.50666 6.087C9.68866 6.087 9.86199 6.05233 10.0267 5.983C10.1913 5.905 10.3343 5.80533 10.4557 5.684C10.5857 5.554 10.6853 5.40667 10.7547 5.242C10.8327 5.07733 10.8717 4.904 10.8717 4.722V0.899999H12.3147V7.959Z" fill="white" fill-opacity="0.66"/>
</svg>
